<?xml version="1.0" encoding="UTF-8" standalone="no"?>
<!-- Generator: Adobe Illustrator 19.0.0, SVG Export Plug-In . SVG Version: 6.00 Build 0)  -->

<svg
   xmlns:dc="http://purl.org/dc/elements/1.1/"
   xmlns:cc="http://creativecommons.org/ns#"
   xmlns:rdf="http://www.w3.org/1999/02/22-rdf-syntax-ns#"
   xmlns:svg="http://www.w3.org/2000/svg"
   xmlns="http://www.w3.org/2000/svg"
   xmlns:sodipodi="http://sodipodi.sourceforge.net/DTD/sodipodi-0.dtd"
   xmlns:inkscape="http://www.inkscape.org/namespaces/inkscape"
   version="1.1"
   id="Layer_1"
   x="0px"
   y="0px"
   viewBox="0 0 512 512"
   style="enable-background:new 0 0 512 512;"
   xml:space="preserve"
   sodipodi:docname="app-icon.svg"
   inkscape:version="0.92.4 (5da689c313, 2019-01-14)"><metadata
   id="metadata89"><rdf:RDF><cc:Work
       rdf:about=""><dc:format>image/svg+xml</dc:format><dc:type
         rdf:resource="http://purl.org/dc/dcmitype/StillImage" /></cc:Work></rdf:RDF></metadata><defs
   id="defs87">
	
	
	
</defs><sodipodi:namedview
   pagecolor="#ffffff"
   bordercolor="#666666"
   borderopacity="1"
   objecttolerance="10"
   gridtolerance="10"
   guidetolerance="10"
   inkscape:pageopacity="0"
   inkscape:pageshadow="2"
   inkscape:window-width="1366"
   inkscape:window-height="705"
   id="namedview85"
   showgrid="false"
   inkscape:snap-nodes="false"
   inkscape:zoom="0.65186406"
   inkscape:cx="253.22155"
   inkscape:cy="273.76895"
   inkscape:window-x="-8"
   inkscape:window-y="-8"
   inkscape:window-maximized="1"
   inkscape:current-layer="Layer_1" />

<rect
   style="fill:#6fb539;fill-opacity:1;stroke-width:4.4881196"
   id="rect879"
   width="512"
   height="512"
   x="0"
   y="0" />
















<g
   id="g928"
   transform="matrix(0.82688546,0,0,0.82688546,50.846153,54.364719)"><path
     id="path4"
     d="m 223.11,380.281 -9.629,37.805 -32.36,27.14 v 5.815 h 74.882 74.882 v -5.815 l -32.36,-27.14 -9.629,-37.805 -32.892,-0.483 z"
     style="fill:#c8cacc"
     inkscape:connector-curvature="0" /><path
     id="path6"
     d="m 181.121,445.226 v 5.815 h 74.882 74.879 v -5.815 z"
     style="fill:#ffffff"
     inkscape:connector-curvature="0" /><path
     id="path8"
     d="m 88.928,119.077 h 334.15 c 10.98,0 19.961,8.981 19.961,19.961 v 205.84 H 68.969 v -205.84 c 0,-10.98 8.981,-19.961 19.961,-19.961 z"
     style="fill:#666666"
     inkscape:connector-curvature="0" /><path
     id="path10"
     d="M 82.52,331.32 H 429.483 V 139.035 c 0,-3.499 -2.909,-6.408 -6.405,-6.408 H 88.928 c -3.499,0 -6.405,2.909 -6.405,6.408 V 331.32 Z"
     style="fill:#95d362;fill-opacity:1"
     inkscape:connector-curvature="0" /><g
     transform="matrix(0.26218647,0,0,0.26218647,237.58824,184.59516)"
     id="g3915"><path
       style="fill:#5b9ed6"
       inkscape:connector-curvature="0"
       d="m 253.96094,474.59766 c 15.58203,0 28.65625,-10.69922 32.29297,-25.15235 -21.82813,-18.91406 -35.63672,-46.83594 -35.63672,-77.98437 0,-31.625 14.23437,-59.91797 36.64453,-78.83594 V 161.54687 c 0,-18.39062 -14.91016,-33.29687 -33.30078,-33.29687 H 33.296875 C 14.910156,128.25 0,143.15625 0,161.54687 v 279.75391 c 0,18.39063 14.910156,33.29688 33.296875,33.29688"
       id="path3844" /><path
       style="fill:#4c83b3"
       inkscape:connector-curvature="0"
       d="m 253.96094,128.25 h -24.66797 c 18.39062,0 33.30078,14.90625 33.30078,33.29687 v 114.28125 c 0,5.19532 -1.85938,10.21094 -5.21484,14.17969 -10.14844,11.98828 -18.09766,25.89453 -23.22657,41.10156 -5.27734,12.39454 -8.20312,26.02735 -8.20312,40.34766 0,14.39063 2.94922,28.08984 8.27344,40.53125 0.0352,0.10547 0.0703,0.21094 0.10546,0.31641 4.89063,14.29687 -5.5664,29.1914 -20.67968,29.1914 H 33.296875 C 14.910156,441.49609 0,426.58594 0,408.19531 v 33.10547 c 0,18.39063 14.910156,33.29688 33.300781,33.29688 H 253.96094 c 10.8125,0 20.41797,-5.15625 26.5,-13.14454 0.0351,-0.0469 0.0703,-0.0937 0.10937,-0.14453 0.24219,-0.32422 0.48438,-0.65625 0.71875,-0.99218 0.0625,-0.0899 0.1211,-0.17969 0.1836,-0.26953 0.20312,-0.29688 0.40625,-0.60157 0.60156,-0.91016 0.0703,-0.11328 0.14453,-0.23047 0.21484,-0.34375 0.17578,-0.28516 0.34766,-0.57422 0.51563,-0.86719 0.0781,-0.13281 0.15625,-0.26953 0.23047,-0.40234 0.15625,-0.27735 0.30859,-0.5586 0.45312,-0.83985 0.0781,-0.14843 0.15625,-0.30078 0.23438,-0.45312 0.13671,-0.27344 0.26953,-0.54688 0.39843,-0.82422 0.0742,-0.16406 0.15235,-0.32422 0.22266,-0.48437 0.125,-0.27735 0.24219,-0.55469 0.35937,-0.83204 0.0703,-0.16796 0.14063,-0.33593 0.20704,-0.5039 0.11328,-0.28516 0.21875,-0.57031 0.32421,-0.85547 0.0625,-0.16797 0.125,-0.33594 0.1836,-0.50391 0.10937,-0.30859 0.20703,-0.62109 0.30469,-0.93359 0.0469,-0.14844 0.0976,-0.29688 0.14453,-0.44531 0.13672,-0.46485 0.26562,-0.92969 0.38672,-1.40235 -1.125,-0.97656 -2.22657,-1.98047 -3.3086,-3.0039 -0.1289,-0.1211 -0.25781,-0.23828 -0.38672,-0.36328 -1.03906,-0.99219 -2.05859,-2.00782 -3.05468,-3.04297 -0.14063,-0.14453 -0.27735,-0.28907 -0.41407,-0.4336 -1.0039,-1.05078 -1.98437,-2.12109 -2.9414,-3.21875 -0.0937,-0.10937 -0.19141,-0.21875 -0.28516,-0.32812 -0.99609,-1.14844 -1.97266,-2.3125 -2.91797,-3.50391 -13.97656,-17.60156 -22.33203,-39.87109 -22.33203,-64.08984 0,-31.625 14.23828,-59.91797 36.64453,-78.83594 V 161.54688 C 287.26172,143.15625 272.35156,128.25 253.96094,128.25 Z m 0,0"
       id="path3846" /><path
       style="fill:#5a67ad"
       inkscape:connector-curvature="0"
       d="M 64.9375,97.253906 H 222.32422 V 128.25 H 64.9375 Z m 0,0"
       id="path3848" /><path
       style="fill:#48538a"
       inkscape:connector-curvature="0"
       d="m 181.85156,97.253906 h 40.47266 V 128.25 h -40.47266 z m 0,0"
       id="path3850" /><path
       style="fill:#5b9ed6"
       inkscape:connector-curvature="0"
       d="M 32.226562,52.695312 V 84.75 c 0,6.90625 5.601563,12.503906 12.503907,12.503906 H 242.52734 c 6.90625,0 12.50391,-5.597656 12.50391,-12.503906 V 20.636719 c 0,-6.90625 -5.59766,-12.503907 -12.50391,-12.503907 H 44.730469 c -6.90625,0 -12.503907,5.601563 -12.503907,12.503907 z m 0,0"
       id="path3852" /><path
       style="fill:#4c83b3"
       inkscape:connector-curvature="0"
       d="m 198.90234,8.132812 v 89.121094 h 43.625 c 6.90625,0 12.50391,-5.597656 12.50391,-12.503906 V 20.636719 c 0,-6.90625 -5.59766,-12.503907 -12.50391,-12.503907 z m 0,0"
       id="path3854" /><path
       style="fill:#ef2d57"
       inkscape:connector-curvature="0"
       d="m 230,301.42578 c 0,47.69922 -38.66797,86.37109 -86.37109,86.37109 -47.699222,0 -86.371098,-38.67187 -86.371098,-86.37109 0,-47.70312 38.671876,-86.375 86.371098,-86.375 47.70312,0 86.37109,38.67188 86.37109,86.375 z m 0,0"
       id="path3856" /><path
       style="fill:#d9294f"
       inkscape:connector-curvature="0"
       d="m 192.58203,230.27344 c 9.58984,13.91406 15.21875,30.77343 15.21875,48.94922 0,47.70312 -38.67187,86.37109 -86.37109,86.37109 -18.17969,0 -35.035159,-5.625 -48.953128,-15.21875 15.578126,22.59766 41.628908,37.42187 71.152348,37.42187 47.70312,0 86.37109,-38.67187 86.37109,-86.37109 0,-29.52344 -14.82031,-55.57422 -37.41797,-71.15234 z m 0,0"
       id="path3858" /><path
       style="fill:#fcda55"
       inkscape:connector-curvature="0"
       d="m 456.89453,371.45703 c 0,56.96484 -46.17578,103.14063 -103.14062,103.14063 -56.96094,0 -103.13672,-46.17579 -103.13672,-103.14063 0,-56.96094 46.17578,-103.13672 103.13672,-103.13672 56.96484,0 103.14062,46.17578 103.14062,103.13672 z m 0,0"
       id="path3860" /><path
       style="fill:#d9bc4a"
       inkscape:connector-curvature="0"
       d="m 416.09766,289.29297 c 13.16015,17.3164 20.97656,38.91797 20.97656,62.34375 0,56.96484 -46.17578,103.14062 -103.14063,103.14062 -23.42578,0 -45.02734,-7.8164 -62.34375,-20.97656 18.83985,24.78906 48.62891,40.79688 82.16797,40.79688 56.96094,0 103.13672,-46.17579 103.13672,-103.14063 0,-33.53516 -16.00781,-63.32422 -40.79687,-82.16406 z m 0,0"
       id="path3862" /><path
       style="fill:#d9bc4a"
       inkscape:connector-curvature="0"
       d="m 282.9375,445.44141 c 3.94922,3.42968 8.16406,6.5664 12.60547,9.375 L 437.81641,312.53906 c -2.8086,-4.4414 -5.94141,-8.65625 -9.375,-12.60156 -0.63672,0.35156 -1.24219,0.79297 -1.78516,1.33594 L 284.27344,443.65625 c -0.54297,0.54297 -0.98438,1.14453 -1.33594,1.78516 z m 0,0"
       id="path3864" /><path
       style="fill:#f084ad"
       inkscape:connector-curvature="0"
       d="m 418.34375,140.19141 c -36.875,8.92187 -65.74609,39.20312 -65.74609,78.45703 v 49.6875 c 0.38672,-0.004 0.76953,-0.0156 1.15625,-0.0156 56.96484,0 103.14062,46.17578 103.14062,103.14063 0,28.10547 -11.24609,53.58203 -29.48047,72.18359 1.61719,0.10156 3.24219,0.16406 4.88282,0.16406 C 476.31641,443.80859 512,408.125 512,364.10937 V 218.64844 c 0,-39.25391 -28.38672,-71.85547 -65.74609,-78.45703 0,0 -18.35547,-2.3125 -27.91016,0 z m 0,0"
       id="path3866" /><path
       style="fill:#d47499"
       inkscape:connector-curvature="0"
       d="m 446.25391,140.19141 c -10.00782,-1.3711 -19.3086,-1.3711 -27.91016,0 -0.28125,0.0508 -0.5625,0.11718 -0.84375,0.16796 36.9375,6.94532 64.89844,39.33204 64.89844,78.28907 v 145.46093 c 0,33.46094 -20.62891,62.08985 -49.85938,73.90235 -1.64062,1.9414 -3.34765,3.82031 -5.125,5.63281 1.61719,0.10156 3.24219,0.16406 4.88672,0.16406 C 476.31641,443.80859 512,408.125 512,364.10937 V 218.64844 c 0,-39.25391 -28.38672,-71.85547 -65.74609,-78.45703 z m 0,0"
       id="path3868" /><path
       style="fill:#ef2d57"
       inkscape:connector-curvature="0"
       d="m 418.75,291.37891 c 23.26953,18.91015 38.14453,47.75781 38.14453,80.07812 0,28.10938 -11.24609,53.58594 -29.48047,72.1875 1.61719,0.0977 3.24219,0.16406 4.88282,0.16406 C 476.31641,443.80859 512,408.125 512,364.10937 v -72.73046 z m 0,0"
       id="path3870" /><path
       style="fill:#cc264b"
       inkscape:connector-curvature="0"
       d="m 482.39844,364.10937 c 0,33.46094 -20.62891,62.08594 -49.85938,73.90235 -0.76172,0.90234 -1.53906,1.78515 -2.33203,2.66015 -0.13672,0.14844 -0.27344,0.29688 -0.40625,0.44532 -0.78515,0.85547 -1.57812,1.70312 -2.38672,2.52734 1.61719,0.10156 3.24219,0.16406 4.88281,0.16406 C 476.31641,443.80859 512,408.125 512,364.10937 v -72.73046 h -29.60156 z m 0,0"
       id="path3872" /><path
       style="fill:#ffffff"
       inkscape:connector-curvature="0"
       d="m 183.31641,293.49609 h -31.75782 v -31.75781 c 0,-4.3789 -3.55078,-7.92969 -7.92968,-7.92969 -4.37891,0 -7.92579,3.55078 -7.92579,7.92969 v 31.75781 h -31.75781 c -4.378904,0 -7.929685,3.54688 -7.929685,7.92578 0,4.37891 3.550781,7.92969 7.929685,7.92969 h 31.75781 v 31.75781 c 0,4.37891 3.54688,7.92969 7.92579,7.92969 4.3789,0 7.92968,-3.55078 7.92968,-7.92969 v -31.75781 h 31.75782 c 4.3789,0 7.92968,-3.55078 7.92968,-7.92969 0,-4.3789 -3.55078,-7.92578 -7.92968,-7.92578 z m 0,0"
       id="path3874" /><g
       style="fill:#674297"
       id="g3882"><path
         inkscape:connector-curvature="0"
         d="m 86.835938,104.98047 c -4.378907,0 -7.929688,-3.55078 -7.929688,-7.929689 V 7.929688 C 78.90625,3.550781 82.457031,0 86.835938,0 c 4.378906,0 7.929687,3.550781 7.929687,7.929688 v 89.121093 c 0,4.378909 -3.550781,7.929689 -7.929687,7.929689 z m 0,0"
         id="path3876" /><path
         inkscape:connector-curvature="0"
         d="m 143.75,104.98047 c -4.37891,0 -7.92969,-3.55078 -7.92969,-7.929689 V 7.929688 C 135.82031,3.550781 139.37109,0 143.75,0 c 4.37891,0 7.92578,3.550781 7.92578,7.929688 v 89.121093 c 0.004,4.378909 -3.54687,7.929689 -7.92578,7.929689 z m 0,0"
         id="path3878" /><path
         inkscape:connector-curvature="0"
         d="m 200.66406,104.98047 c -4.3789,0 -7.92969,-3.55078 -7.92969,-7.929689 V 7.929688 C 192.73437,3.550781 196.28516,0 200.66406,0 c 4.37891,0 7.92578,3.550781 7.92578,7.929688 v 89.121093 c 0.004,4.378909 -3.54687,7.929689 -7.92578,7.929689 z m 0,0"
         id="path3880" /></g><path
       style="fill:#e69326"
       inkscape:connector-curvature="0"
       d="m 281.52344,451.53516 c -2.02735,0 -4.05469,-0.77735 -5.60547,-2.32422 -3.09375,-3.09766 -3.09375,-8.11719 0,-11.21485 L 418.30078,295.61328 c 3.09766,-3.09375 8.11719,-3.09766 11.21484,0 3.09766,3.09766 3.09766,8.11719 0,11.21484 L 287.13281,449.21094 c -1.55078,1.54687 -3.57812,2.32422 -5.60937,2.32422 z m 0,0"
       id="path3884" /></g><g
     id="g16">
	<path
   id="path12"
   d="m 443.036,344.875 v 21.829 c 0,10.98 -9.899,19.961 -22.004,19.961 H 90.968 c -12.103,0 -22.002,-8.981 -22.002,-19.961 v -21.829 z"
   style="fill:#ffffff"
   inkscape:connector-curvature="0" />
	
</g><path
     id="path20"
     d="m 460.138,307.959 h 14.859 V 169.412 h -14.859 z"
     style="fill:#ffffff;fill-opacity:1"
     inkscape:connector-curvature="0" /><g
     id="g26">
	<path
   id="path22"
   d="m 467.577,337.473 7.42,-29.514 H 460.14 Z"
   style="fill:#529ddb;fill-opacity:1"
   inkscape:connector-curvature="0" />
	<path
   id="path24"
   d="m 463.189,155.893 h 8.758 c 2.408,0 4.378,2.321 4.378,5.157 v 64.41 h -17.519 v -64.41 c 0,-2.835 1.97,-5.157 4.38,-5.157 z"
   style="fill:#529ddb;fill-opacity:1"
   inkscape:connector-curvature="0" />
</g><path
     id="path28"
     d="m 467.273,339.606 h 0.616 l 2.471,-13.199 h -5.542 l 2.452,13.199 z"
     style="fill:#666666"
     inkscape:connector-curvature="0" /><path
     id="path30"
     d="m 458.813,167.009 21.409,0.165 1.348,0.01 v 1.576 47.975 0.49 l -0.249,0.42 -2.028,3.415 c -1.039,1.584 -3.208,0.367 -2.209,-1.818 l 1.781,-2.998 v -45.905 l -20.063,-0.155 0.01,-3.174 v -0.001 z"
     style="fill:#ff5b61"
     inkscape:connector-curvature="0" /><g
     transform="matrix(0.87859945,0,0,0.87859945,9.2124323,-11.912345)"
     id="g3965"><g
       id="g3952"><path
         inkscape:connector-curvature="0"
         id="path18"
         d="M 6.14,78.092 H 246.231 V 232.144 H 6.14 Z"
         style="fill:#fbb429" /><path
         inkscape:connector-curvature="0"
         id="path32"
         d="M 242.394,78.092 H 126.19 v 148.105 h 116.204 z"
         style="fill:#dfe1e3" /><path
         inkscape:connector-curvature="0"
         id="path34"
         d="m 235.48,78.092 c -35.515,0 -69.439,-15.536 -106.552,0 V 216.825 H 235.48 Z"
         style="fill:#ffffff" /><path
         inkscape:connector-curvature="0"
         id="path36"
         d="M 9.981,78.092 H 126.188 V 226.197 H 9.981 Z"
         style="fill:#dfe1e3" /><path
         inkscape:connector-curvature="0"
         id="path38"
         d="m 19.633,78.092 c 36.428,0 89.08,-15.266 109.295,0 V 216.825 H 19.633 Z"
         style="fill:#ffffff" /><path
         inkscape:connector-curvature="0"
         id="path40"
         d="m 26.233,85.772 h 58.354 v 8.019 H 26.233 Z"
         style="fill:#679e5a;fill-opacity:1" /></g><path
       inkscape:connector-curvature="0"
       id="path42"
       d="m 26.233,143.187 h 84.361 v 2.759 H 26.233 Z m 112.419,0 v 0 h 84.364 v 2.759 h -84.364 z m 0,-36.383 v 0 h 84.364 v 2.759 h -84.364 z m 0,27.819 v 0 h 36.94 v 2.757 h -36.94 z m 0,-5.566 v 0 h 84.364 v 2.759 h -84.364 z m 0,-5.563 v 0 h 84.364 v 2.759 h -84.364 z m 0,-5.564 v 0 h 36.94 v 2.759 h -36.94 z m 0,-5.563 v 0 h 84.364 v 2.759 h -84.364 z m 0,58.635 v 0 h 29.034 v 2.759 h -29.034 z m 0,-5.561 v 0 h 84.364 v 2.757 h -84.364 z m 0,-5.564 v 0 h 84.364 v 2.757 h -84.364 z m 0,-5.566 v 0 h 84.364 v 2.759 h -84.364 z m 0,-5.563 v 0 h 84.364 v 2.757 H 138.652 Z M 26.233,106.801 v 0 h 84.361 v 2.759 H 26.233 Z m 0,27.819 v 0 h 36.94 v 2.757 h -36.94 z m 0,-5.566 v 0 h 84.361 v 2.759 H 26.233 Z m 0,-5.563 v 0 h 84.361 v 2.759 H 26.233 Z m 0,-5.563 v 0 h 84.361 v 2.759 H 26.233 Z m 0,-5.564 v 0 h 84.361 v 2.759 H 26.233 Z m 0,58.635 v 0 h 29.034 v 2.759 H 26.233 Z m 0,-5.561 v 0 h 84.361 v 2.757 H 26.233 Z m 0,-5.563 v 0 h 84.361 v 2.757 H 26.233 Z m 0,-5.566 v 0 h 84.361 v 2.759 H 26.233 Z m 0,-5.564 v 0 h 84.361 v 2.757 H 26.233 Z"
       style="fill:#c8cacc" /></g><path
     style="fill:#c8cacc"
     d="m 361.437,46.107 75.503,36.415 c 3.992,3.045 2.833,21.847 2.35,25.346 -0.485,3.502 -2.867,2.274 -5.49,-0.454 -2.623,-2.728 5.582,-18.621 -1.112,-21.524 L 349.263,49.706 c 0.818,-1.492 2.067,-3.019 3.525,-3.494 2.096,-0.685 4.462,-0.858 8.648,-0.102 v -0.003 z"
     id="path44"
     inkscape:connector-curvature="0" /><path
     style="fill:#c8cacc"
     d="m 461.557,80.319 -82,-17.401 c -5.02,-0.034 -15.609,15.541 -17.37,18.608 -1.757,3.064 0.876,3.552 4.622,3.001 3.746,-0.551 6.98,-18.143 14.054,-16.344 l 88.122,22.429 c 0.268,-1.679 0.212,-3.651 -0.651,-4.918 -1.235,-1.823 -3.003,-3.413 -6.775,-5.375 z"
     id="path46"
     inkscape:connector-curvature="0" /><path
     id="path50"
     d="m 467.572,94.738 c -0.832,1.49 -1.652,2.988 -2.468,4.459 -1.527,2.744 -3.045,5.493 -4.559,8.244 -6.29,11.442 -28.638,6.715 -36.837,-0.071 -0.357,-0.294 -0.692,-0.616 -1.005,-0.957 -2.028,-2.222 -3.19,-5.361 -3.885,-8.244 -0.839,-3.489 -1.144,-7.166 -1.235,-10.749 -0.058,-2.232 0.092,-4.719 -0.029,-6.959 0.079,-0.349 0.165,-0.692 0.257,-1.026 l 14.878,6.455 c 6.697,2.904 -1.511,18.794 1.112,21.522 2.623,2.731 5.005,3.955 5.49,0.454 0.485,-3.499 1.642,-22.301 -2.353,-25.346 l -0.294,-0.142 32.339,8.234 c -0.21,1.369 -0.674,2.807 -1.409,4.126 z M 422.01,71.923 v 0 l 39.542,8.391 c -10.547,-5.49 -29.488,-9.642 -37.207,-10.169 -0.764,0.448 -1.559,1.03 -2.335,1.778 z M 347.85,53.829 v 0 c -0.252,1.687 -0.522,3.373 -0.774,5.036 -0.475,3.106 -0.952,6.209 -1.443,9.312 -2.028,12.9 18.542,22.836 29.181,22.487 0.464,-0.013 0.923,-0.066 1.38,-0.144 2.964,-0.514 5.807,-2.287 8.118,-4.144 2.796,-2.245 5.291,-4.965 7.557,-7.743 1.411,-1.731 2.817,-3.79 4.278,-5.487 0.155,-0.325 0.294,-0.651 0.428,-0.968 l -15.712,-4 c -7.074,-1.799 -10.306,15.79 -14.054,16.344 -3.746,0.551 -6.379,0.063 -4.622,-3.001 1.76,-3.064 12.349,-18.642 17.372,-18.608 l 0.323,0.068 -30.616,-13.278 c -0.674,1.212 -1.186,2.633 -1.411,4.129 z m 49.994,9.837 v 0 l -36.41,-17.561 c 11.704,2.114 29.223,10.421 35.652,14.728 0.328,0.821 0.603,1.765 0.758,2.833 z"
     style="fill:#ecf0f1"
     inkscape:connector-curvature="0" /><path
     id="path52"
     d="m 348.023,37.464 c 9.162,0.194 47.324,12.402 51.219,16.764 0.433,0.485 9.047,6.19 9.036,6.206 l 3.638,1.54 3.819,1.007 c 0.005,-0.018 10.306,0.74 10.946,0.622 5.734,-1.062 43.172,12.548 50.7,18.033 2.109,0.837 4.255,1.794 4.205,2.201 0.252,1.044 -2.631,7.449 -2.922,7.659 -0.231,0.081 -1.272,0.071 -2.883,-0.003 -0.351,0.315 -0.721,0.75 -1.086,1.348 -1.513,2.481 -7.536,13.383 -9.584,17.112 -8.074,14.686 -33.96,10.35 -44.733,1.432 -9.726,-8.047 -7.746,-27.604 -8.081,-31.337 -0.066,-0.734 0.029,-1.844 0.226,-3.153 -1.437,-1.663 -3.276,-3.449 -4.533,-3.434 -0.984,-0.784 -3.533,-0.493 -5.687,-0.058 -0.648,1.154 -1.254,2.091 -1.752,2.631 -2.547,2.749 -12.95,19.426 -25.566,19.84 -13.978,0.459 -37.105,-11.95 -34.503,-28.509 0.661,-4.205 2.571,-16.509 2.891,-19.4 0.081,-0.729 0.081,-1.338 0.037,-1.831 -1.12,-0.797 -1.818,-1.332 -1.938,-1.521 -0.102,-0.346 1.537,-7.174 2.374,-7.845 0.194,-0.328 2.159,0.123 4.173,0.69 z m -0.171,16.365 v 0 c -0.252,1.689 -0.522,3.376 -0.774,5.039 -0.475,3.106 -0.952,6.209 -1.44,9.312 -2.03,12.9 18.539,22.839 29.178,22.487 0.464,-0.013 0.923,-0.066 1.38,-0.144 2.964,-0.514 5.807,-2.287 8.118,-4.142 2.799,-2.248 5.291,-4.968 7.557,-7.746 1.411,-1.731 2.817,-3.788 4.278,-5.49 2.542,-5.437 2.038,-9.574 0.942,-12.31 -8.611,-5.773 -37.147,-18.728 -44.906,-14.335 -1.973,1.117 -3.83,4.05 -4.333,7.331 z m 119.722,40.909 v 0 c 1.611,-2.901 1.936,-6.358 1.06,-8.446 -3.449,-8.223 -33.944,-15.439 -44.289,-16.145 -2.542,1.495 -5.472,4.456 -6.791,10.314 0.118,2.237 -0.029,4.727 0.026,6.959 0.092,3.583 0.396,7.263 1.235,10.749 0.695,2.883 1.857,6.022 3.885,8.244 0.312,0.341 0.648,0.664 1.005,0.957 8.199,6.786 30.547,11.515 36.837,0.071 1.513,-2.752 3.032,-5.5 4.559,-8.244 0.818,-1.474 1.639,-2.969 2.471,-4.459 z"
     style="fill:#679e5a;fill-opacity:1"
     inkscape:connector-curvature="0" /></g>
<g
   id="g54">
</g>
<g
   id="g56">
</g>
<g
   id="g58">
</g>
<g
   id="g60">
</g>
<g
   id="g62">
</g>
<g
   id="g64">
</g>
<g
   id="g66">
</g>
<g
   id="g68">
</g>
<g
   id="g70">
</g>
<g
   id="g72">
</g>
<g
   id="g74">
</g>
<g
   id="g76">
</g>
<g
   id="g78">
</g>
<g
   id="g80">
</g>
<g
   id="g82">
</g>
</svg>